<svg width="570" height="284" viewBox="0 0 570 284" fill="none" xmlns="http://www.w3.org/2000/svg">
<g clip-path="url(#clip0)">
<rect width="570" height="284" fill="white"/>
<path d="M460.898 167.452C455.66 168.972 446.46 170.221 435.812 171.226C406.859 173.961 367.184 174.932 367.184 174.932C367.184 174.932 163.226 188.251 10.3638 138.716C10.3638 138.716 -11.8704 129.538 8.75537 117.186C11.9315 115.34 15.308 113.718 18.8458 112.34L19.0978 112.141C21.4438 110.434 23.9792 108.895 26.6736 107.544C34.5926 103.512 47.9642 98.7335 64.2418 100.899L465.724 152.026C465.724 152.026 480.387 161.782 460.898 167.452Z" fill="#439BAA"/>
<path d="M380.904 144.28L464.952 97.3276L501.994 102.372L465.724 152.026C465.724 152.026 381.869 152.554 380.904 144.28Z" fill="#439BAA"/>
<path d="M169.306 115.755L336.72 78.7866L363.704 83.2277L288.08 110.013L264.446 130.834L169.306 115.755Z" fill="#439BAA"/>
<path d="M435.812 171.226C406.859 173.961 367.184 174.932 367.184 174.932C367.184 174.932 163.226 188.251 10.3638 138.716C10.3638 138.716 -11.8704 129.538 8.75537 117.186L8.82507 117.414C8.82507 117.414 41.8092 134.967 199.406 149.62L435.812 171.226Z" fill="#89BDD2"/>
<path d="M408.902 170.213L483.749 194.275L502.552 192.633L457.783 166.139C457.783 166.139 403.632 157.041 408.902 170.213Z" fill="#439BAA"/>
<path d="M35.9651 119.985C32.3943 120.031 24.2126 115.316 19.1245 112.141C21.4706 110.434 24.006 108.895 26.7003 107.544C30.8019 110.022 38.099 114.032 42.1576 113.876C48.0178 113.686 41.3427 119.909 35.9651 119.985Z" fill="#89BDD2"/>
<path d="M375.999 253.39L327.943 255.369L192.833 183.637L167.751 170.318L155.57 163.846C178.426 148.649 271.679 169.609 271.679 169.609C273.465 170.795 274.033 172.767 273.953 174.945C273.797 179.023 271.363 183.81 270.425 185.532C270.2 185.955 270.06 186.178 270.06 186.178L375.999 253.39Z" fill="#439BAA"/>
<path d="M217.737 216.198L209.4 220.352L214.45 213.12C213.02 212.222 211.251 211.724 209.421 211.706H209.287C208.709 211.715 208.131 211.681 207.561 211.605L204.741 213.015L205.947 211.284C203.949 210.732 202.223 209.698 201.014 208.329L195.969 210.862L199.154 206.294C196.205 203.504 192.227 201.794 187.846 201.794C182.597 201.794 177.922 204.251 174.904 208.084C174.009 209.232 172.743 210.173 171.236 210.81C169.73 211.448 168.035 211.76 166.325 211.715H166.046C160.251 211.715 155.554 216.886 155.554 223.269C155.554 229.652 160.251 234.823 166.046 234.823C167.32 234.82 168.573 234.572 169.698 234.101C171.671 233.348 173.828 232.94 176.021 232.906C178.214 232.873 180.39 233.214 182.399 233.907C184.098 234.504 185.938 234.813 187.798 234.813C189.659 234.813 191.498 234.504 193.197 233.907C195.19 233.227 197.344 232.892 199.515 232.925C201.686 232.958 203.823 233.358 205.781 234.097C206.898 234.556 208.139 234.798 209.4 234.802C215.196 234.802 219.892 229.631 219.892 223.248C219.934 220.793 219.193 218.369 217.737 216.198Z" fill="#F2F2F2"/>
<path opacity="0.03" d="M202.055 233.105C199.027 232.654 195.897 232.921 193.063 233.873C191.366 234.472 189.527 234.781 187.667 234.781C185.807 234.781 183.968 234.472 182.27 233.873C180.262 233.179 178.086 232.836 175.893 232.87C173.699 232.903 171.542 233.312 169.569 234.068C168.442 234.537 167.187 234.785 165.912 234.789C160.765 234.789 156.482 230.703 155.592 225.316C156.621 224.727 157.496 223.986 158.165 223.134C161.184 219.305 165.859 216.848 171.108 216.848C176.357 216.848 180.984 219.254 183.997 223.054C184.896 224.199 186.156 225.141 187.654 225.79C189.153 226.439 190.839 226.771 192.549 226.756H192.683C196.779 226.747 200.328 229.331 202.055 233.105Z" fill="black"/>
<path d="M453.108 210.71L444.771 214.864L449.821 207.632C448.391 206.734 446.622 206.236 444.792 206.218H444.658C444.08 206.227 443.502 206.193 442.932 206.117L440.112 207.527L441.318 205.796C439.32 205.244 437.594 204.21 436.385 202.841L431.34 205.374L434.525 200.806C431.576 198.016 427.598 196.306 423.218 196.306C417.969 196.306 413.293 198.763 410.275 202.596C409.38 203.744 408.114 204.685 406.607 205.322C405.101 205.96 403.406 206.272 401.696 206.227H401.418C395.622 206.227 390.925 211.398 390.925 217.781C390.925 224.164 395.622 229.335 401.418 229.335C402.691 229.332 403.944 229.084 405.069 228.613C407.042 227.86 409.2 227.452 411.392 227.418C413.585 227.385 415.761 227.726 417.77 228.419C419.469 229.016 421.309 229.325 423.169 229.325C425.03 229.325 426.869 229.016 428.568 228.419C430.561 227.739 432.715 227.404 434.886 227.437C437.057 227.47 439.194 227.87 441.152 228.609C442.269 229.068 443.51 229.31 444.771 229.314C450.567 229.314 455.263 224.143 455.263 217.76C455.305 215.305 454.564 212.881 453.108 210.71V210.71Z" fill="#F2F2F2"/>
<path opacity="0.03" d="M437.426 227.617C434.398 227.166 431.269 227.433 428.434 228.385C426.737 228.984 424.898 229.293 423.038 229.293C421.178 229.293 419.339 228.984 417.642 228.385C415.633 227.691 413.457 227.348 411.264 227.382C409.07 227.415 406.913 227.824 404.94 228.58C403.813 229.049 402.559 229.297 401.284 229.301C396.137 229.301 391.853 225.215 390.963 219.828C391.993 219.239 392.867 218.498 393.536 217.646C396.555 213.817 401.23 211.36 406.479 211.36C411.728 211.36 416.355 213.766 419.368 217.566C420.27 218.714 421.534 219.658 423.037 220.307C424.541 220.956 426.232 221.287 427.946 221.268H428.08C432.15 221.259 435.699 223.843 437.426 227.617Z" fill="black"/>
<path d="M453.108 72.2433L444.771 76.3973L449.821 69.1657C448.391 68.2673 446.622 67.7697 444.792 67.7515H444.658C444.08 67.7604 443.502 67.7265 442.932 67.6502L440.112 69.0602L441.318 67.3294C439.32 66.7772 437.594 65.7432 436.385 64.3743L431.34 66.9072L434.525 62.3395C431.576 59.5491 427.598 57.8394 423.218 57.8394C417.969 57.8394 413.293 60.2963 410.275 64.1295C409.38 65.2773 408.114 66.218 406.607 66.8557C405.101 67.4934 403.406 67.8054 401.696 67.76H401.418C395.622 67.76 390.925 72.9314 390.925 79.3143C390.925 85.6973 395.622 90.8687 401.418 90.8687C402.691 90.8655 403.944 90.6177 405.069 90.1468C407.042 89.3931 409.2 88.9853 411.392 88.9518C413.585 88.9183 415.761 89.2597 417.77 89.9526C419.467 90.5529 421.306 90.8651 423.166 90.8687C425.027 90.8723 426.868 90.5674 428.568 89.9737C430.561 89.2938 432.715 88.9589 434.886 88.9917C437.057 89.0245 439.194 89.4242 441.152 90.1637C442.269 90.6229 443.51 90.8646 444.771 90.8687C450.567 90.8687 455.263 85.6973 455.263 79.3143C455.31 76.8523 454.568 74.4206 453.108 72.2433V72.2433Z" fill="#F2F2F2"/>
<path opacity="0.03" d="M437.426 89.1505C434.398 88.6994 431.269 88.9668 428.434 89.9188C426.737 90.5172 424.898 90.8266 423.038 90.8266C421.178 90.8266 419.339 90.5172 417.642 89.9188C415.633 89.224 413.457 88.8814 411.264 88.915C409.07 88.9485 406.913 89.3573 404.94 90.113C403.813 90.5825 402.559 90.8302 401.284 90.8348C396.137 90.8348 391.853 86.7484 390.963 81.3617C391.993 80.7728 392.867 80.0315 393.536 79.1792C396.555 75.3503 401.23 72.8933 406.479 72.8933C411.728 72.8933 416.355 75.2996 419.368 79.099C420.27 80.2472 421.534 81.1919 423.037 81.8407C424.541 82.4896 426.232 82.8205 427.946 82.8013H428.08C432.15 82.7928 435.699 85.3764 437.426 89.1505Z" fill="black"/>
<path d="M108.887 57.3031L104.732 59.3759L107.252 55.7707C106.54 55.32 105.656 55.0703 104.743 55.0615H104.678C104.389 55.0638 104.101 55.0469 103.815 55.0108L102.41 55.7116L103.011 54.8673C102.014 54.5923 101.153 54.0767 100.55 53.394L98.0354 54.6604L99.6438 52.385C98.975 51.7039 98.1216 51.1489 97.1459 50.7604C96.1702 50.3719 95.0966 50.1596 94.0035 50.1392C91.3871 50.1392 89.0548 51.3634 87.5697 53.2758C87.1227 53.8498 86.49 54.32 85.7363 54.6383C84.9826 54.9565 84.1351 55.1113 83.2805 55.0868H83.1411C80.2512 55.0868 77.9082 57.6704 77.9082 60.8534C77.9082 64.0365 80.2512 66.6158 83.1411 66.6158C83.7766 66.6142 84.4022 66.4911 84.964 66.257C85.9481 65.8798 87.0247 65.6757 88.1191 65.659C89.2134 65.6422 90.2993 65.8131 91.3013 66.1599C92.1452 66.4553 93.0585 66.6079 93.9821 66.6079C94.9056 66.6079 95.8189 66.4553 96.6628 66.1599C97.6569 65.8204 98.7321 65.6533 99.8154 65.6701C100.899 65.6868 101.965 65.887 102.941 66.257C103.498 66.484 104.115 66.604 104.743 66.6074C107.633 66.6074 109.975 64.028 109.975 60.845C109.996 59.6112 109.622 58.3931 108.887 57.3031Z" fill="#F2F2F2"/>
<path opacity="0.03" d="M101.065 65.7379C99.5538 65.51 97.9908 65.6439 96.5772 66.1221C95.7326 66.4157 94.8198 66.5681 93.8965 66.5695C92.9627 66.5693 92.0397 66.4125 91.1889 66.1094C90.1862 65.7641 89.1003 65.5943 88.0061 65.6118C86.9119 65.6293 85.8356 65.8337 84.8516 66.2107C84.2917 66.4448 83.6679 66.5679 83.034 66.5695C80.4658 66.5695 78.3266 64.5305 77.8816 61.8456C78.3939 61.5497 78.8305 61.1801 79.1684 60.7565C80.6696 58.8441 83.0019 57.6199 85.6022 57.6199C88.2025 57.6199 90.5241 58.8315 92.036 60.7185C92.4866 61.2923 93.1189 61.7641 93.8708 62.0875C94.6228 62.4109 95.4686 62.5748 96.3252 62.5633H96.3949C98.4162 62.5633 100.202 63.8551 101.065 65.7379Z" fill="black"/>
<path d="M478.833 263.737L474.677 265.809L477.197 262.204C476.485 261.754 475.602 261.504 474.688 261.495H474.624C474.335 261.497 474.046 261.48 473.761 261.444L472.356 262.145L472.956 261.301C471.96 261.026 471.098 260.51 470.495 259.828L467.981 261.094L469.589 258.819C468.921 258.138 468.067 257.582 467.091 257.194C466.116 256.805 465.042 256.593 463.949 256.573C461.333 256.573 459 257.797 457.515 259.709C457.068 260.283 456.436 260.754 455.682 261.072C454.928 261.39 454.081 261.545 453.226 261.52H453.087C450.197 261.52 447.854 264.104 447.854 267.287C447.854 270.47 450.197 273.049 453.087 273.049C453.722 273.048 454.348 272.925 454.91 272.691C455.894 272.313 456.97 272.109 458.065 272.093C459.159 272.076 460.245 272.247 461.247 272.593C462.091 272.889 463.004 273.041 463.928 273.041C464.851 273.041 465.764 272.889 466.608 272.593C467.602 272.254 468.678 272.087 469.761 272.104C470.844 272.12 471.91 272.321 472.887 272.691C473.444 272.918 474.061 273.038 474.688 273.041C477.578 273.041 479.921 270.462 479.921 267.279C479.941 266.045 479.567 264.827 478.833 263.737V263.737Z" fill="#F2F2F2"/>
<path opacity="0.03" d="M471.01 272.171C469.499 271.943 467.936 272.077 466.523 272.555C465.678 272.849 464.765 273.001 463.842 273.003C462.908 273.003 461.985 272.846 461.134 272.543C460.132 272.197 459.046 272.028 457.951 272.045C456.857 272.063 455.781 272.267 454.797 272.644C454.237 272.878 453.613 273.001 452.979 273.003C450.411 273.003 448.272 270.964 447.827 268.279C448.339 267.983 448.776 267.613 449.114 267.19C450.615 265.277 452.947 264.053 455.547 264.053C458.148 264.053 460.469 265.265 461.981 267.152C462.432 267.726 463.064 268.197 463.816 268.521C464.568 268.844 465.414 269.008 466.271 268.997H466.34C468.362 268.997 470.147 270.288 471.01 272.171Z" fill="black"/>
<path d="M92.8026 274.713L88.6474 276.785L91.1674 273.18C90.4552 272.729 89.5717 272.48 88.6582 272.471H88.5938C88.3048 272.473 88.016 272.456 87.7306 272.42L86.3259 273.121L86.9264 272.277C85.9296 272.002 85.0684 271.486 84.4654 270.803L81.9509 272.07L83.5593 269.794C82.8905 269.113 82.0372 268.558 81.0614 268.17C80.0857 267.781 79.0121 267.569 77.919 267.549C75.3026 267.549 72.9703 268.773 71.4852 270.685C71.0382 271.259 70.4055 271.729 69.6518 272.048C68.8982 272.366 68.0506 272.521 67.196 272.496H67.0566C64.1667 272.496 61.8237 275.08 61.8237 278.263C61.8237 281.446 64.1667 284.025 67.0566 284.025C67.6922 284.024 68.3177 283.9 68.8795 283.666C69.8636 283.289 70.9402 283.085 72.0346 283.068C73.1289 283.052 74.2148 283.223 75.2168 283.569C76.0608 283.865 76.974 284.017 77.8976 284.017C78.8211 284.017 79.7344 283.865 80.5783 283.569C81.5724 283.23 82.6476 283.063 83.7309 283.079C84.8143 283.096 85.8803 283.296 86.8567 283.666C87.4137 283.893 88.031 284.013 88.6582 284.017C91.548 284.017 93.891 281.437 93.891 278.254C93.9113 277.021 93.5371 275.803 92.8026 274.713V274.713Z" fill="#F2F2F2"/>
<path opacity="0.03" d="M84.9801 283.147C83.4691 282.919 81.906 283.053 80.4925 283.531C79.6479 283.825 78.7351 283.977 77.8118 283.979C76.878 283.979 75.955 283.822 75.1042 283.519C74.1015 283.173 73.0156 283.004 71.9214 283.021C70.8272 283.039 69.7509 283.243 68.7669 283.62C68.207 283.854 67.5832 283.977 66.9493 283.979C64.3811 283.979 62.2419 281.94 61.7969 279.255C62.3092 278.959 62.7458 278.59 63.0836 278.166C64.5849 276.254 66.9171 275.029 69.5175 275.029C72.1178 275.029 74.4394 276.241 75.9513 278.128C76.4019 278.702 77.0342 279.173 77.7861 279.497C78.538 279.82 79.3838 279.984 80.2405 279.973H80.3102C82.3315 279.973 84.1169 281.264 84.9801 283.147Z" fill="black"/>
<path d="M284.756 14.4076L276.419 18.5616L281.47 11.3301C280.039 10.4316 278.27 9.934 276.44 9.91584H276.306C275.728 9.92474 275.15 9.89083 274.58 9.81453L271.76 11.2245L272.966 9.49369C270.968 8.94153 269.242 7.9075 268.034 6.53861L262.988 9.07153L266.173 4.50383C263.224 1.71339 259.246 0.00366211 254.866 0.00366211C249.617 0.00366211 244.942 2.4606 241.923 6.29376C241.028 7.44163 239.762 8.3823 238.256 9.02002C236.749 9.65774 235.054 9.96975 233.345 9.92428H233.066C227.27 9.92428 222.573 15.0957 222.573 21.4786C222.573 27.8616 227.27 33.033 233.066 33.033C234.339 33.0298 235.593 32.782 236.717 32.3111C238.69 31.5574 240.848 31.1497 243.041 31.1161C245.233 31.0826 247.409 31.4241 249.418 32.1169C251.116 32.7172 252.954 33.0294 254.815 33.033C256.675 33.0366 258.516 32.7317 260.217 32.138C262.209 31.4581 264.363 31.1232 266.534 31.156C268.706 31.1888 270.842 31.5885 272.8 32.328C273.918 32.7872 275.159 33.0289 276.419 33.033C282.215 33.033 286.912 27.8616 286.912 21.4786C286.958 19.0166 286.217 16.5849 284.756 14.4076V14.4076Z" fill="#F2F2F2"/>
<path opacity="0.03" d="M269.074 31.3155C266.046 30.8645 262.917 31.1319 260.082 32.0838C258.385 32.6823 256.546 32.9916 254.686 32.9916C252.826 32.9916 250.987 32.6823 249.29 32.0838C247.281 31.389 245.105 31.0465 242.912 31.08C240.718 31.1136 238.561 31.5223 236.588 32.278C235.461 32.7475 234.207 32.9952 232.932 32.9999C227.784 32.9999 223.501 28.9134 222.611 23.5268C223.64 22.9379 224.515 22.1965 225.184 21.3442C228.203 17.5153 232.878 15.0583 238.127 15.0583C243.376 15.0583 248.003 17.4646 251.016 21.264C251.918 22.4123 253.182 23.3569 254.685 24.0058C256.189 24.6547 257.88 24.9856 259.594 24.9663H259.728C263.798 24.9579 267.347 27.5414 269.074 31.3155Z" fill="black"/>
<path d="M568.906 86.8539L564.751 88.9267L567.271 85.3215C566.559 84.8708 565.675 84.6211 564.762 84.6123H564.697C564.408 84.6146 564.12 84.5977 563.834 84.5616L562.429 85.2624L563.03 84.4181C562.033 84.1431 561.172 83.6275 560.569 82.9447L558.054 84.2112L559.663 81.9358C558.994 81.2547 558.141 80.6997 557.165 80.3112C556.189 79.9226 555.116 79.7104 554.023 79.6899C551.406 79.6899 549.074 80.9142 547.589 82.8265C547.142 83.4006 546.509 83.8708 545.755 84.189C545.002 84.5073 544.154 84.6621 543.3 84.6376H543.16C540.27 84.6376 537.927 87.2212 537.927 90.4042C537.927 93.5873 540.27 96.1666 543.16 96.1666C543.796 96.165 544.421 96.0418 544.983 95.8078C545.967 95.4306 547.044 95.2265 548.138 95.2097C549.232 95.193 550.318 95.3639 551.32 95.7107C552.164 96.0061 553.078 96.1587 554.001 96.1587C554.925 96.1587 555.838 96.0061 556.682 95.7107C557.676 95.3711 558.751 95.2041 559.835 95.2208C560.918 95.2376 561.984 95.4378 562.96 95.8078C563.517 96.0348 564.135 96.1548 564.762 96.1582C567.652 96.1582 569.995 93.5788 569.995 90.3958C570.015 89.1619 569.641 87.9439 568.906 86.8539V86.8539Z" fill="#F2F2F2"/>
<path opacity="0.03" d="M561.084 95.2887C559.573 95.0608 558.01 95.1946 556.596 95.6728C555.751 95.9665 554.839 96.1189 553.915 96.1203C552.991 96.1171 552.077 95.9603 551.235 95.6602C550.232 95.3149 549.146 95.1451 548.052 95.1626C546.958 95.1801 545.881 95.3844 544.897 95.7615C544.337 95.9955 543.714 96.1187 543.08 96.1203C540.511 96.1203 538.372 94.0813 537.927 91.3964C538.44 91.1005 538.876 90.7309 539.214 90.3073C540.715 88.3949 543.048 87.1707 545.648 87.1707C548.248 87.1707 550.57 88.3822 552.082 90.2693C552.53 90.84 553.158 91.3098 553.905 91.633C554.652 91.9562 555.492 92.122 556.344 92.1141H556.414C558.435 92.1141 560.22 93.4059 561.084 95.2887Z" fill="black"/>
</g>
<defs>
<clipPath id="clip0">
<rect width="570" height="284" fill="white"/>
</clipPath>
</defs>
</svg>
